<?xml version="1.0" encoding="utf-8"?>
<!-- Generator: Adobe Illustrator 27.5.0, SVG Export Plug-In . SVG Version: 6.00 Build 0)  -->
<svg version="1.1" xmlns="http://www.w3.org/2000/svg" xmlns:xlink="http://www.w3.org/1999/xlink" x="0px" y="0px"
	 viewBox="0 0 500 500" style="enable-background:new 0 0 500 500;" xml:space="preserve">
<g id="Background_Simple">
	<g>
		<path style="fill:#C6FF00;" d="M377.996,152.555c-15.559-8.52-31.768-11.935-49.461-9.749c-21.788,2.692-38.971,5.859-59.847-2.26
			c-17.529-6.818-33.537-16.954-50.26-25.438c-34.202-17.351-68.151-22.722-93.789,11.498
			c-13.643,18.21-23.981,39.122-31.149,61.185c-11.56,35.586-21.057,74.995-15.854,112.166
			c6.595,47.119,47.003,69.246,95.348,52.174c19.545-6.902,38.416-16.997,59.268-19.893c43.624-6.057,79.593,33.983,131.906,24.261
			C454.339,339.74,447.678,190.714,377.996,152.555z"/>
		<path style="opacity:0.7;fill:#FFFFFF;" d="M377.996,152.555c-15.559-8.52-31.768-11.935-49.461-9.749
			c-21.788,2.692-38.971,5.859-59.847-2.26c-17.529-6.818-33.537-16.954-50.26-25.438c-34.202-17.351-68.151-22.722-93.789,11.498
			c-13.643,18.21-23.981,39.122-31.149,61.185c-11.56,35.586-21.057,74.995-15.854,112.166
			c6.595,47.119,47.003,69.246,95.348,52.174c19.545-6.902,38.416-16.997,59.268-19.893c43.624-6.057,79.593,33.983,131.906,24.261
			C454.339,339.74,447.678,190.714,377.996,152.555z"/>
	</g>
</g>
<g id="Clouds">
	<g>
		<path style="fill:#C6FF00;" d="M391.654,114.167c-6.35-3.463-9.236-0.577-11.544-3.463c-2.309-2.886,6.349-10.39-10.967-17.894
			c0,0-1.154-16.162-24.821-16.74c-23.666-0.577-17.317,16.163-23.666,20.203c-6.349,4.041-8.081-2.309-14.431,1.732
			c-6.35,4.04-3.464,12.122-8.658,13.276c-5.195,1.154-12.122-5.195-18.471-1.155c-6.35,4.04-6.35,7.504-9.236,7.504
			c-2.886,0-8.659-2.309-12.122,0c-3.463,2.309-7.504,5.195-7.504,5.195h146.039C396.271,122.826,398.003,117.631,391.654,114.167z"
			/>
		<path style="opacity:0.5;fill:#FFFFFF;" d="M391.654,114.167c-6.35-3.463-9.236-0.577-11.544-3.463
			c-2.309-2.886,6.349-10.39-10.967-17.894c0,0-1.154-16.162-24.821-16.74c-23.666-0.577-17.317,16.163-23.666,20.203
			c-6.349,4.041-8.081-2.309-14.431,1.732c-6.35,4.04-3.464,12.122-8.658,13.276c-5.195,1.154-12.122-5.195-18.471-1.155
			c-6.35,4.04-6.35,7.504-9.236,7.504c-2.886,0-8.659-2.309-12.122,0c-3.463,2.309-7.504,5.195-7.504,5.195h146.039
			C396.271,122.826,398.003,117.631,391.654,114.167z"/>
	</g>
	<g>
		<path style="fill:#FFFFFF;" d="M226.077,243.9c-4.46-2.432-6.487-0.405-8.108-2.432c-1.622-2.027,4.459-7.298-7.703-12.568
			c0,0-0.811-11.352-17.433-11.757c-16.622-0.405-12.162,11.352-16.622,14.19c-4.46,2.838-5.676-1.622-10.135,1.216
			c-4.46,2.838-2.433,8.514-6.081,9.325c-3.649,0.811-8.514-3.649-12.973-0.811c-4.46,2.838-4.46,5.27-6.487,5.27
			c-2.027,0-6.081-1.622-8.514,0c-2.432,1.622-5.27,3.649-5.27,3.649h102.57C229.321,249.982,230.537,246.333,226.077,243.9z"/>
		<path style="opacity:0.5;fill:#FFFFFF;" d="M226.077,243.9c-4.46-2.432-6.487-0.405-8.108-2.432
			c-1.622-2.027,4.459-7.298-7.703-12.568c0,0-0.811-11.352-17.433-11.757c-16.622-0.405-12.162,11.352-16.622,14.19
			c-4.46,2.838-5.676-1.622-10.135,1.216c-4.46,2.838-2.433,8.514-6.081,9.325c-3.649,0.811-8.514-3.649-12.973-0.811
			c-4.46,2.838-4.46,5.27-6.487,5.27c-2.027,0-6.081-1.622-8.514,0c-2.432,1.622-5.27,3.649-5.27,3.649h102.57
			C229.321,249.982,230.537,246.333,226.077,243.9z"/>
	</g>
</g>
<g id="Plants">
	<g>
		<path style="fill:#C6FF00;" d="M352.872,412.869h63.199c-1.214-7.732-6.178-6.372-6.837-18.349
			c-0.332-6.032,5.251-13.497,4.768-21.422c-0.398-6.527-6.834-13.22-7.334-20.687c-0.451-6.739,5.042-14.217,4.509-21.48
			c-0.504-6.866-7.028-13.454-7.605-20.589c-0.564-6.962,4.816-14.517,4.182-21.553c-0.634-7.043-7.275-13.508-7.979-20.445
			c-0.723-7.133,4.481-14.812,3.685-21.639c-0.845-7.246-7.683-13.505-8.61-20.18c-1.032-7.433,3.81-15.374,2.677-21.792
			c-1.389-7.864-8.707-13.552-10.246-19.351c-2.869-10.808-2.511-21.225-5.898-21.903c-3.618-0.724-4.442,9.487-7.183,20.902
			c-1.377,5.733-8.534,11.543-9.71,19.411c-0.953,6.371,4.107,14.118,3.278,21.521c-0.742,6.629-7.406,13.002-8.055,20.208
			c-0.61,6.778,4.799,14.253,4.267,21.34c-0.517,6.888-6.984,13.459-7.431,20.455c-0.446,6.981,5.13,14.327,4.75,21.236
			c-0.39,7.08-6.739,13.766-7.064,20.58c-0.344,7.204,5.341,14.473,5.064,21.159c-0.306,7.406-6.568,14.193-6.798,20.668
			c-0.279,7.859,5.492,15.115,5.314,21.097c-0.386,12.99-6.332,10.299-6.546,20.752L352.872,412.869z"/>
		<line style="fill:none;stroke:#000000;stroke-miterlimit:10;" x1="380.002" y1="184.25" x2="380.002" y2="409.951"/>
		<polyline style="fill:none;stroke:#000000;stroke-miterlimit:10;" points="389.871,207.91 379.582,216.796 371.163,205.572 		"/>
		<polyline style="fill:none;stroke:#000000;stroke-miterlimit:10;" points="389.871,247.196 379.582,256.082 371.163,244.857 		"/>
		<polyline style="fill:none;stroke:#000000;stroke-miterlimit:10;" points="389.871,284.143 379.582,293.029 371.163,281.804 		"/>
		<polyline style="fill:none;stroke:#000000;stroke-miterlimit:10;" points="389.871,328.105 379.582,336.991 371.163,325.766 		"/>
		<polyline style="fill:none;stroke:#000000;stroke-miterlimit:10;" points="389.871,372.535 379.582,381.421 371.163,370.196 		"/>
	</g>
	<g>
		<path style="fill:#C6FF00;" d="M309.824,412.869h48.784c-0.937-5.969-4.769-4.918-5.277-14.163
			c-0.256-4.656,4.053-10.419,3.68-16.536c-0.307-5.039-5.275-10.204-5.661-15.968c-0.348-5.202,3.892-10.974,3.48-16.581
			c-0.389-5.3-5.425-10.385-5.871-15.893c-0.435-5.374,3.717-11.206,3.229-16.637c-0.489-5.437-5.616-10.427-6.159-15.782
			c-0.558-5.506,3.459-11.433,2.845-16.704c-0.652-5.594-5.93-10.425-6.646-15.577c-0.797-5.738,2.941-11.867,2.066-16.822
			c-1.072-6.07-6.721-10.461-7.909-14.938c-2.215-8.343-1.938-16.384-4.553-16.907c-2.792-0.559-3.428,7.323-5.545,16.134
			c-1.063,4.425-6.588,8.91-7.496,14.983c-0.735,4.918,3.17,10.898,2.53,16.612c-0.573,5.117-5.717,10.036-6.218,15.599
			c-0.471,5.232,3.704,11.002,3.294,16.473c-0.399,5.317-5.391,10.389-5.736,15.789c-0.345,5.388,3.96,11.059,3.667,16.392
			c-0.301,5.465-5.202,10.626-5.453,15.886c-0.266,5.561,4.123,11.172,3.909,16.333c-0.236,5.717-5.07,10.956-5.248,15.954
			c-0.216,6.067,4.239,11.667,4.102,16.285c-0.298,10.027-4.888,7.95-5.053,16.018L309.824,412.869z"/>
		<line style="fill:none;stroke:#000000;stroke-miterlimit:10;" x1="330.766" y1="236.395" x2="330.766" y2="410.617"/>
		<polyline style="fill:none;stroke:#000000;stroke-miterlimit:10;" points="338.384,254.659 330.442,261.518 323.943,252.854 		"/>
		<polyline style="fill:none;stroke:#000000;stroke-miterlimit:10;" points="338.384,284.984 330.442,291.843 323.943,283.179 		"/>
		<polyline style="fill:none;stroke:#000000;stroke-miterlimit:10;" points="338.384,313.504 330.442,320.363 323.943,311.698 		"/>
		<polyline style="fill:none;stroke:#000000;stroke-miterlimit:10;" points="338.384,347.439 330.442,354.298 323.943,345.633 		"/>
		<polyline style="fill:none;stroke:#000000;stroke-miterlimit:10;" points="338.384,381.734 330.442,388.594 323.943,379.929 		"/>
	</g>
</g>
<g id="Mailbox">
	<g>
		<g>
			<polyline style="fill:#263238;stroke:#263238;stroke-linecap:round;stroke-linejoin:round;stroke-miterlimit:10;" points="
				266.333,412.401 266.333,210.224 277,210.224 277,412.401 			"/>
			<polyline style="fill:#C6FF00;stroke:#263238;stroke-linecap:round;stroke-linejoin:round;stroke-miterlimit:10;" points="
				261,412.401 261,210.224 271.667,210.224 271.667,412.401 			"/>
			<rect x="261" y="210.224" style="opacity:0.3;fill:#263238;" width="10.667" height="24"/>
		</g>
		<g>
			<path style="fill:#C6FF00;stroke:#263238;stroke-linecap:round;stroke-linejoin:round;stroke-miterlimit:10;" d="
				M306.534,131.286L306.534,131.286h-79.069l34.466,84.644h10.137H341v-50.178C341,146.716,325.569,131.286,306.534,131.286z"/>
			<path style="opacity:0.3;" d="M255.899,201.113l6.033,14.816h10.137H341v-50.178c0-0.763-0.034-1.518-0.083-2.269h-85.019
				V201.113z"/>
			
				<line style="fill:none;stroke:#263238;stroke-linecap:round;stroke-linejoin:round;stroke-miterlimit:10;" x1="305.953" y1="163.482" x2="297.634" y2="163.482"/>
			
				<line style="fill:none;stroke:#263238;stroke-linecap:round;stroke-linejoin:round;stroke-miterlimit:10;" x1="340.917" y1="163.482" x2="315.741" y2="163.482"/>
		</g>
		<path style="fill:#263238;stroke:#263238;stroke-linecap:round;stroke-linejoin:round;stroke-miterlimit:10;" d="M261.931,215.929
			H193v-50.178c0-19.035,15.431-34.466,34.466-34.466h0c19.035,0,34.466,15.431,34.466,34.466V215.929z"/>
		
			<rect x="202.527" y="210.224" style="fill:#C6FF00;stroke:#263238;stroke-linecap:round;stroke-linejoin:round;stroke-miterlimit:10;" width="59.404" height="5.705"/>
		<g>
			
				<rect x="139" y="210.224" style="fill:#C6FF00;stroke:#263238;stroke-linecap:round;stroke-linejoin:round;stroke-miterlimit:10;" width="122.931" height="5.705"/>
			<rect x="202.527" y="210.224" style="opacity:0.3;" width="59.404" height="5.705"/>
		</g>
		<g>
			
				<rect x="287" y="110.891" style="fill:#263238;stroke:#263238;stroke-linecap:round;stroke-linejoin:round;stroke-miterlimit:10;" width="24.667" height="17.333"/>
			
				<rect x="283.667" y="110.891" style="fill:#FFFFFF;stroke:#263238;stroke-linecap:round;stroke-linejoin:round;stroke-miterlimit:10;" width="5.333" height="54"/>
			
				<circle style="fill:#263238;stroke:#263238;stroke-linecap:round;stroke-linejoin:round;stroke-miterlimit:10;" cx="286.333" cy="166.224" r="6"/>
		</g>
	</g>
</g>
<g id="Paper_Planes">
	<g>
		<g>
			<g>
				
					<path style="fill:none;stroke:#FFFFFF;stroke-linecap:round;stroke-linejoin:round;stroke-miterlimit:10;stroke-dasharray:2,4;" d="
					M198.34,145.152c13.924,7.073,38.122,18.401,60.444,24.1"/>
				
					<path style="fill:none;stroke:#263238;stroke-linecap:round;stroke-linejoin:round;stroke-miterlimit:10;stroke-dasharray:2,4;" d="
					M186.66,138.96c0,0,4.458,2.524,11.68,6.192"/>
			</g>
			<g>
				<g>
					
						<polygon style="fill:#FFFFFF;stroke:#263238;stroke-width:1.2629;stroke-linecap:round;stroke-linejoin:round;stroke-miterlimit:10;" points="
						181.645,138.626 191.662,114.854 119.066,97.143 					"/>
					
						<polygon style="fill:#C6FF00;stroke:#263238;stroke-width:1.2629;stroke-linecap:round;stroke-linejoin:round;stroke-miterlimit:10;" points="
						186.531,117.73 181.645,138.626 119.066,97.143 					"/>
					
						<polygon style="fill:#FFFFFF;stroke:#263238;stroke-width:1.2629;stroke-linecap:round;stroke-linejoin:round;stroke-miterlimit:10;" points="
						186.531,117.73 175.141,127.488 119.066,97.143 					"/>
					
						<polygon style="fill:#FFFFFF;stroke:#263238;stroke-width:1.2629;stroke-linecap:round;stroke-linejoin:round;stroke-miterlimit:10;" points="
						191.662,114.854 201.798,110.727 119.066,97.143 					"/>
				</g>
				
					<line style="fill:none;stroke:#263238;stroke-linecap:round;stroke-linejoin:round;stroke-miterlimit:10;" x1="167.546" y1="134.926" x2="169.899" y2="136.367"/>
				
					<line style="fill:none;stroke:#263238;stroke-linecap:round;stroke-linejoin:round;stroke-miterlimit:10;" x1="154.727" y1="127.069" x2="162.6" y2="131.894"/>
			</g>
		</g>
		<g>
			<g>
				
					<polygon style="fill:#FFFFFF;stroke:#263238;stroke-width:1.2629;stroke-linecap:round;stroke-linejoin:round;stroke-miterlimit:10;" points="
					145.89,184.154 145.89,158.358 219.667,170.224 				"/>
				
					<polygon style="fill:#C6FF00;stroke:#263238;stroke-width:1.2629;stroke-linecap:round;stroke-linejoin:round;stroke-miterlimit:10;" points="
					149.501,163.001 145.89,184.154 219.667,170.224 				"/>
				
					<polygon style="fill:#FFFFFF;stroke:#263238;stroke-width:1.2629;stroke-linecap:round;stroke-linejoin:round;stroke-miterlimit:10;" points="
					149.501,163.001 156.208,176.415 219.667,170.224 				"/>
				
					<polygon style="fill:#FFFFFF;stroke:#263238;stroke-width:1.2629;stroke-linecap:round;stroke-linejoin:round;stroke-miterlimit:10;" points="
					145.89,158.358 138.151,150.619 219.667,170.224 				"/>
			</g>
			
				<line style="fill:none;stroke:#263238;stroke-linecap:round;stroke-linejoin:round;stroke-miterlimit:10;" x1="172.312" y1="183.672" x2="178.708" y2="182.372"/>
			
				<line style="fill:none;stroke:#263238;stroke-linecap:round;stroke-linejoin:round;stroke-miterlimit:10;" x1="149.833" y1="188.244" x2="165.916" y2="184.973"/>
		</g>
		
			<path style="fill:none;stroke:#263238;stroke-linecap:round;stroke-linejoin:round;stroke-miterlimit:10;stroke-dasharray:2,4;" d="
			M137,182.557c0,0-58,10-69,62s47,55,57,30s-34-35-44-11s20,65,61,67c34.07,1.662,129.594-38.106,189.03-48.155
			c0,0,43.97-12.178,111.97-9.511"/>
	</g>
</g>
<g id="Fence">
	<g>
		<g>
			
				<line style="fill:#FFFFFF;stroke:#263238;stroke-linecap:round;stroke-linejoin:round;stroke-miterlimit:10;" x1="423.333" y1="345.557" x2="440" y2="345.557"/>
			
				<line style="fill:#FFFFFF;stroke:#263238;stroke-linecap:round;stroke-linejoin:round;stroke-miterlimit:10;" x1="423.333" y1="370.224" x2="440" y2="370.224"/>
			<polyline style="fill:#FFFFFF;stroke:#263238;stroke-linecap:round;stroke-linejoin:round;stroke-miterlimit:10;" points="
				72.333,369.557 421.333,369.557 421.333,346.224 72.333,346.224 			"/>
			<path style="fill:#263238;stroke:#263238;stroke-linecap:round;stroke-linejoin:round;stroke-miterlimit:10;" d="M96.586,412.557
				V295.139c0-0.584,0.241-1.142,0.666-1.542l9.122-8.586c0.853-0.803,2.195-0.761,2.996,0.094l7.976,8.508
				c0.368,0.392,0.573,0.91,0.573,1.448v117.496"/>
			<path style="fill:#FFFFFF;stroke:#263238;stroke-linecap:round;stroke-linejoin:round;stroke-miterlimit:10;" d="M94,413.557
				V295.139c0-0.584,0.241-1.142,0.666-1.542l9.122-8.586c0.853-0.803,2.195-0.761,2.996,0.094l7.976,8.508
				c0.368,0.392,0.573,0.91,0.573,1.448v118.496"/>
			<path style="fill:#263238;stroke:#263238;stroke-linecap:round;stroke-linejoin:round;stroke-miterlimit:10;" d="
				M173.488,412.557V295.139c0-0.584,0.241-1.142,0.666-1.542l9.122-8.586c0.853-0.803,2.195-0.761,2.996,0.094l7.976,8.508
				c0.368,0.392,0.573,0.91,0.573,1.448v117.496"/>
			<path style="fill:#FFFFFF;stroke:#263238;stroke-linecap:round;stroke-linejoin:round;stroke-miterlimit:10;" d="
				M171.333,413.557V295.139c0-0.584,0.241-1.142,0.666-1.542l9.122-8.586c0.853-0.803,2.195-0.761,2.996,0.094l7.976,8.508
				c0.368,0.392,0.573,0.91,0.573,1.448v118.496"/>
			<path style="fill:#263238;stroke:#263238;stroke-linecap:round;stroke-linejoin:round;stroke-miterlimit:10;" d="
				M250.822,412.557V295.139c0-0.584,0.241-1.142,0.666-1.542l9.122-8.586c0.853-0.803,2.195-0.761,2.996,0.094l7.976,8.508
				c0.368,0.392,0.573,0.91,0.573,1.448v118.496"/>
			<path style="fill:#FFFFFF;stroke:#263238;stroke-linecap:round;stroke-linejoin:round;stroke-miterlimit:10;" d="
				M248.667,413.557V295.139c0-0.584,0.241-1.142,0.666-1.542l9.122-8.586c0.853-0.803,2.195-0.761,2.996,0.094l7.976,8.508
				c0.368,0.392,0.573,0.91,0.573,1.448v118.496"/>
			<path style="fill:#263238;stroke:#263238;stroke-linecap:round;stroke-linejoin:round;stroke-miterlimit:10;" d="
				M328.155,412.557V295.139c0-0.584,0.241-1.142,0.666-1.542l9.122-8.586c0.853-0.803,2.195-0.761,2.996,0.094l7.976,8.508
				c0.368,0.392,0.573,0.91,0.573,1.448v117.496"/>
			<path style="fill:#FFFFFF;stroke:#263238;stroke-linecap:round;stroke-linejoin:round;stroke-miterlimit:10;" d="M326,413.557
				V295.139c0-0.584,0.241-1.142,0.666-1.542l9.122-8.586c0.853-0.803,2.195-0.761,2.996,0.094l7.976,8.508
				c0.368,0.392,0.573,0.91,0.573,1.448v118.496"/>
			<path style="fill:#263238;stroke:#263238;stroke-linecap:round;stroke-linejoin:round;stroke-miterlimit:10;" d="
				M405.488,412.557V295.139c0-0.584,0.241-1.142,0.666-1.542l9.122-8.586c0.853-0.803,2.195-0.761,2.996,0.094l7.976,8.508
				c0.368,0.392,0.573,0.91,0.573,1.448v117.496"/>
			<path style="fill:#FFFFFF;stroke:#263238;stroke-linecap:round;stroke-linejoin:round;stroke-miterlimit:10;" d="
				M403.333,413.557V295.139c0-0.584,0.241-1.142,0.666-1.542l9.122-8.586c0.853-0.803,2.195-0.761,2.996,0.094l7.976,8.508
				c0.368,0.392,0.573,0.91,0.573,1.448v118.496"/>
		</g>
		<g>
			
				<line style="fill:none;stroke:#263238;stroke-linecap:round;stroke-linejoin:round;stroke-miterlimit:10;" x1="106.784" y1="285.105" x2="106.784" y2="293.657"/>
			
				<line style="fill:none;stroke:#263238;stroke-linecap:round;stroke-linejoin:round;stroke-miterlimit:10;" x1="110.212" y1="289.522" x2="110.212" y2="309.784"/>
			
				<line style="fill:none;stroke:#263238;stroke-linecap:round;stroke-linejoin:round;stroke-miterlimit:10;" x1="175.544" y1="291.176" x2="175.544" y2="316.813"/>
			
				<line style="fill:none;stroke:#263238;stroke-linecap:round;stroke-linejoin:round;stroke-miterlimit:10;" x1="178.852" y1="287.868" x2="178.852" y2="299.033"/>
			
				<line style="fill:none;stroke:#263238;stroke-linecap:round;stroke-linejoin:round;stroke-miterlimit:10;" x1="258.455" y1="285.011" x2="258.455" y2="310.197"/>
			
				<line style="fill:none;stroke:#263238;stroke-linecap:round;stroke-linejoin:round;stroke-miterlimit:10;" x1="263.205" y1="287.041" x2="263.205" y2="324.256"/>
			
				<line style="fill:none;stroke:#263238;stroke-linecap:round;stroke-linejoin:round;stroke-miterlimit:10;" x1="329.778" y1="291.176" x2="329.778" y2="319.294"/>
			
				<line style="fill:none;stroke:#263238;stroke-linecap:round;stroke-linejoin:round;stroke-miterlimit:10;" x1="340.529" y1="287.868" x2="340.529" y2="294.898"/>
			
				<line style="fill:none;stroke:#263238;stroke-linecap:round;stroke-linejoin:round;stroke-miterlimit:10;" x1="410.41" y1="287.455" x2="410.41" y2="302.341"/>
			
				<line style="fill:none;stroke:#263238;stroke-linecap:round;stroke-linejoin:round;stroke-miterlimit:10;" x1="419.507" y1="289.109" x2="419.507" y2="332.112"/>
			
				<line style="fill:none;stroke:#263238;stroke-linecap:round;stroke-linejoin:round;stroke-miterlimit:10;" x1="402.967" y1="351.96" x2="393.87" y2="351.96"/>
			
				<line style="fill:none;stroke:#263238;stroke-linecap:round;stroke-linejoin:round;stroke-miterlimit:10;" x1="402.967" y1="358.99" x2="371.128" y2="358.99"/>
			
				<line style="fill:none;stroke:#263238;stroke-linecap:round;stroke-linejoin:round;stroke-miterlimit:10;" x1="284.294" y1="358.99" x2="269.821" y2="358.99"/>
			
				<line style="fill:none;stroke:#263238;stroke-linecap:round;stroke-linejoin:round;stroke-miterlimit:10;" x1="208.21" y1="358.99" x2="193.738" y2="358.99"/>
			
				<line style="fill:none;stroke:#263238;stroke-linecap:round;stroke-linejoin:round;stroke-miterlimit:10;" x1="93.672" y1="355.268" x2="79.2" y2="355.268"/>
			
				<line style="fill:none;stroke:#263238;stroke-linecap:round;stroke-linejoin:round;stroke-miterlimit:10;" x1="93.672" y1="361.884" x2="87.883" y2="361.884"/>
			
				<line style="fill:none;stroke:#263238;stroke-linecap:round;stroke-linejoin:round;stroke-miterlimit:10;" x1="276.851" y1="355.268" x2="269.821" y2="355.268"/>
			
				<line style="fill:none;stroke:#263238;stroke-linecap:round;stroke-linejoin:round;stroke-miterlimit:10;" x1="199.94" y1="363.125" x2="192.911" y2="363.125"/>
			
				<line style="fill:none;stroke:#263238;stroke-linecap:round;stroke-linejoin:round;stroke-miterlimit:10;" x1="170.582" y1="363.125" x2="163.553" y2="363.125"/>
			
				<line style="fill:none;stroke:#263238;stroke-linecap:round;stroke-linejoin:round;stroke-miterlimit:10;" x1="431.085" y1="358.99" x2="424.883" y2="358.99"/>
			
				<line style="fill:none;stroke:#263238;stroke-linecap:round;stroke-linejoin:round;stroke-miterlimit:10;" x1="439.355" y1="358.99" x2="435.633" y2="358.99"/>
			<path style="fill:none;stroke:#263238;stroke-linecap:round;stroke-linejoin:round;stroke-miterlimit:10;" d="M114.986,315.995
				c0,0-2.499,21.495-5.499,43.489c-2.999,21.994,2.499,44.489,3.999,46.488"/>
			<path style="fill:none;stroke:#263238;stroke-linecap:round;stroke-linejoin:round;stroke-miterlimit:10;" d="M105.108,359.498
				c0.48-4.29,0.88-7.012,0.88-7.012"/>
			<path style="fill:none;stroke:#263238;stroke-linecap:round;stroke-linejoin:round;stroke-miterlimit:10;" d="M112.487,403.47
				c0,0-8.998-1.997-8.998-17.993c0-6.566,0.421-13.3,0.918-18.959"/>
			<path style="fill:none;stroke:#263238;stroke-linecap:round;stroke-linejoin:round;stroke-miterlimit:10;" d="M187.968,290.501
				c0,0,2,1.5-1.5,18.495c-3.499,16.996-2.999,41.99,1.5,55.986"/>
			<path style="fill:none;stroke:#263238;stroke-linecap:round;stroke-linejoin:round;stroke-miterlimit:10;" d="M192.966,321.994
				c0,0-4.999,14.996-1.5,35.991"/>
			<path style="fill:none;stroke:#263238;stroke-linecap:round;stroke-linejoin:round;stroke-miterlimit:10;" d="M249.952,331.491
				c0,0,2.499,14.496,4.999,29.493c2.499,14.996,0.5,35.991-1.5,41.49c-2,5.499-3.999,9.997-3.999,9.997"/>
			<path style="fill:none;stroke:#263238;stroke-linecap:round;stroke-linejoin:round;stroke-miterlimit:10;" d="M259.417,405.125
				c-2.226,6.839-4.965-1.154-4.965-1.154"/>
			<path style="fill:none;stroke:#263238;stroke-linecap:round;stroke-linejoin:round;stroke-miterlimit:10;" d="M259.333,353.996
				c0,0,4.711,24.314,2.046,42.614"/>
			<path style="fill:none;stroke:#263238;stroke-linecap:round;stroke-linejoin:round;stroke-miterlimit:10;" d="M248.952,361.984
				c0,0,4.999,10.497,0.5,20.495"/>
			<path style="fill:none;stroke:#263238;stroke-linecap:round;stroke-linejoin:round;stroke-miterlimit:10;" d="M342.304,363.483
				c1.25,5.499,2.624,8.998,2.624,8.998"/>
			<path style="fill:none;stroke:#263238;stroke-linecap:round;stroke-linejoin:round;stroke-miterlimit:10;" d="M346.428,311.496
				c0,0-4.999,14.996-5.999,30.992c-0.36,5.756,0.122,11.254,0.886,15.933"/>
			<path style="fill:none;stroke:#263238;stroke-linecap:round;stroke-linejoin:round;stroke-miterlimit:10;" d="M336.93,357.485
				c0,0,4.499,16.996,6.998,22.994c2.499,5.999,1.5,20.495-1.5,27.493"/>
			<path style="fill:none;stroke:#263238;stroke-linecap:round;stroke-linejoin:round;stroke-miterlimit:10;" d="M404.414,318.994
				c0,0,9.997,17.996,0.5,47.488"/>
			<path style="fill:none;stroke:#263238;stroke-linecap:round;stroke-linejoin:round;stroke-miterlimit:10;" d="M413.599,349.737
				c0.062,5.624-0.437,12.747-2.687,18.745c-4.499,11.997-6.498,15.996-6.498,15.996"/>
			<path style="fill:none;stroke:#263238;stroke-linecap:round;stroke-linejoin:round;stroke-miterlimit:10;" d="M412.911,339.989
				c0,0,0.326,2.152,0.531,5.466"/>
		</g>
	</g>
</g>
</svg>
